<?xml version="1.0" encoding="utf-8"?>
<!-- Designed by Vexels.com - 2020 All Rights Reserved - https://vexels.com/terms-and-conditions/  -->
<svg version="1.1" id="Layer_1" xmlns="http://www.w3.org/2000/svg" xmlns:xlink="http://www.w3.org/1999/xlink" x="0px" y="0px"
	 viewBox="0 0 1200 1200" enable-background="new 0 0 1200 1200" xml:space="preserve">
<g>
	<path fill="#EB4D80" d="M647.547,332.084c0.208,0.005,0.416,0.005,0.624,0.005c15.183,0,27.654-12.137,27.982-27.386
		c0.339-15.462-11.913-28.277-27.38-28.616l-115.921-2.549c-15.118-0.689-28.266,11.924-28.606,27.38
		c-0.339,15.462,11.913,28.277,27.38,28.616L647.547,332.084z"/>
	<path fill="#EB4D80" d="M1098.42,1039.943l-36.7-663.588c-3.008-54.29-47.946-97.565-102.149-98.517l-61.412-1.411
		c-15.085-0.448-28.277,11.896-28.638,27.353c-0.361,15.462,11.891,28.288,27.348,28.644l61.565,1.411
		c25.171,0.443,45.977,20.478,47.366,45.616l36.7,663.588c0.744,13.384-3.927,26.117-13.138,35.853
		c-9.222,9.736-21.681,15.101-35.081,15.101H205.709c-13.433,0-25.904-5.382-35.125-15.156c-9.222-9.779-13.86-22.556-13.083-35.957
		l39.785-670.315c1.521-25.936,23.53-45.851,48.722-45.446l42.345,1.231c15.544,0.202,28.354-11.721,28.802-27.178
		c0.448-15.462-11.716-28.359-27.183-28.808l-42.662-1.236c-55.712-1.099-102.663,42.115-105.944,98.139l-39.774,670.315
		c-1.674,28.556,8.62,56.872,28.245,77.678s47.278,32.74,75.873,32.74h788.572c28.956,0,55.855-11.584,75.764-32.615
		C1089.943,1096.355,1100.017,1068.854,1098.42,1039.943z"/>
	<path fill="#EB4D80" d="M304.401,511.747c0,52.715,42.892,95.602,95.607,95.602s95.596-42.886,95.596-95.602
		c0-42.123-27.419-77.902-65.325-90.603c-1.969-45.767-2.691-196.252,66.681-271.96c26.626-29.054,60.274-43.176,102.892-43.176
		c37.499,0,67.023,12.618,90.258,38.582c66.49,74.296,60.887,230.534,57.636,276.416c-38.105,12.588-65.709,48.477-65.709,90.741
		c0,52.715,42.892,95.602,95.607,95.602c52.715,0,95.596-42.886,95.596-95.602c0-43.556-29.311-80.329-69.226-91.813
		c3.803-57.928,6.944-224.179-72.095-312.613C697.921,69.285,653.487,50,599.853,50c-58.371,0-106.885,20.642-144.187,61.351
		c-82.209,89.711-83.73,252.038-81.533,308.454C333.966,431.128,304.401,468.012,304.401,511.747z M817.233,511.747
		c0,21.834-17.754,39.594-39.588,39.594s-39.599-17.759-39.599-39.594c0-21.829,17.765-39.588,39.599-39.588
		S817.233,489.918,817.233,511.747z M400.008,472.158c21.834,0,39.588,17.759,39.588,39.588c0,21.834-17.754,39.594-39.588,39.594
		c-21.834,0-39.599-17.759-39.599-39.594C360.409,489.918,378.174,472.158,400.008,472.158z"/>
	<path fill="#EB4D80" d="M285.181,955.756c0,9.282,7.526,16.802,16.802,16.802h595.739c9.276,0,16.802-7.521,16.802-16.802
		s-7.526-16.802-16.802-16.802H301.983C292.707,938.954,285.181,946.474,285.181,955.756z"/>
</g>
</svg>
